<?xml version="1.0" encoding="UTF-8" standalone="no"?>
<!DOCTYPE svg PUBLIC "-//W3C//DTD SVG 1.1//EN"
 "http://www.w3.org/Graphics/SVG/1.1/DTD/svg11.dtd">
<!-- Generated by graphviz version 2.43.0 (0)
 -->
<!-- Title: %3 Pages: 1 -->
<svg width="2241pt" height="476pt"
 viewBox="0.00 0.00 2240.50 476.00" xmlns="http://www.w3.org/2000/svg" xmlns:xlink="http://www.w3.org/1999/xlink">
<g id="graph0" class="graph" transform="scale(1 1) rotate(0) translate(4 472)">
<title>%3</title>
<polygon fill="white" stroke="transparent" points="-4,4 -4,-472 2236.5,-472 2236.5,4 -4,4"/>
<!-- [root] data.digitalocean_ssh_key.terraform (expand) -->
<g id="node1" class="node">
<title>[root] data.digitalocean_ssh_key.terraform (expand)</title>
<polygon fill="none" stroke="black" points="1688.5,-180 1414.5,-180 1414.5,-144 1688.5,-144 1688.5,-180"/>
<text text-anchor="middle" x="1551.5" y="-158.3" font-family="Times,serif" font-size="14.00">data.digitalocean_ssh_key.terraform</text>
</g>
<!-- [root] provider[&quot;registry.terraform.io/digitalocean/digitalocean&quot;] -->
<g id="node14" class="node">
<title>[root] provider[&quot;registry.terraform.io/digitalocean/digitalocean&quot;]</title>
<polygon fill="none" stroke="black" points="1551.5,-108 1155.19,-90 1551.5,-72 1947.81,-90 1551.5,-108"/>
<text text-anchor="middle" x="1551.5" y="-86.3" font-family="Times,serif" font-size="14.00">provider[&quot;registry.terraform.io/digitalocean/digitalocean&quot;]</text>
</g>
<!-- [root] data.digitalocean_ssh_key.terraform (expand)&#45;&gt;[root] provider[&quot;registry.terraform.io/digitalocean/digitalocean&quot;] -->
<g id="edge1" class="edge">
<title>[root] data.digitalocean_ssh_key.terraform (expand)&#45;&gt;[root] provider[&quot;registry.terraform.io/digitalocean/digitalocean&quot;]</title>
<path fill="none" stroke="black" d="M1551.5,-143.7C1551.5,-135.98 1551.5,-126.71 1551.5,-118.11"/>
<polygon fill="black" stroke="black" points="1555,-118.1 1551.5,-108.1 1548,-118.1 1555,-118.1"/>
</g>
<!-- [root] digitalocean_database_cluster.mysql&#45;glpi (expand) -->
<g id="node2" class="node">
<title>[root] digitalocean_database_cluster.mysql&#45;glpi (expand)</title>
<polygon fill="none" stroke="black" points="791.5,-252 483.5,-252 483.5,-216 791.5,-216 791.5,-252"/>
<text text-anchor="middle" x="637.5" y="-230.3" font-family="Times,serif" font-size="14.00">digitalocean_database_cluster.mysql&#45;glpi</text>
</g>
<!-- [root] digitalocean_database_cluster.mysql&#45;glpi (expand)&#45;&gt;[root] provider[&quot;registry.terraform.io/digitalocean/digitalocean&quot;] -->
<g id="edge2" class="edge">
<title>[root] digitalocean_database_cluster.mysql&#45;glpi (expand)&#45;&gt;[root] provider[&quot;registry.terraform.io/digitalocean/digitalocean&quot;]</title>
<path fill="none" stroke="black" d="M747.3,-215.94C928.32,-187.82 1286.31,-132.2 1456.86,-105.7"/>
<polygon fill="black" stroke="black" points="1457.48,-109.15 1466.83,-104.15 1456.41,-102.23 1457.48,-109.15"/>
</g>
<!-- [root] digitalocean_database_firewall.glpi&#45;fw (expand) -->
<g id="node3" class="node">
<title>[root] digitalocean_database_firewall.glpi&#45;fw (expand)</title>
<polygon fill="none" stroke="black" points="1149.5,-324 861.5,-324 861.5,-288 1149.5,-288 1149.5,-324"/>
<text text-anchor="middle" x="1005.5" y="-302.3" font-family="Times,serif" font-size="14.00">digitalocean_database_firewall.glpi&#45;fw</text>
</g>
<!-- [root] digitalocean_database_firewall.glpi&#45;fw (expand)&#45;&gt;[root] digitalocean_database_cluster.mysql&#45;glpi (expand) -->
<g id="edge3" class="edge">
<title>[root] digitalocean_database_firewall.glpi&#45;fw (expand)&#45;&gt;[root] digitalocean_database_cluster.mysql&#45;glpi (expand)</title>
<path fill="none" stroke="black" d="M915.95,-287.97C861.86,-277.68 792.83,-264.55 737.04,-253.93"/>
<polygon fill="black" stroke="black" points="737.61,-250.48 727.13,-252.05 736.3,-257.36 737.61,-250.48"/>
</g>
<!-- [root] digitalocean_droplet.web&#45;1 (expand) -->
<g id="node6" class="node">
<title>[root] digitalocean_droplet.web&#45;1 (expand)</title>
<polygon fill="none" stroke="black" points="1657,-252 1448,-252 1448,-216 1657,-216 1657,-252"/>
<text text-anchor="middle" x="1552.5" y="-230.3" font-family="Times,serif" font-size="14.00">digitalocean_droplet.web&#45;1</text>
</g>
<!-- [root] digitalocean_database_firewall.glpi&#45;fw (expand)&#45;&gt;[root] digitalocean_droplet.web&#45;1 (expand) -->
<g id="edge4" class="edge">
<title>[root] digitalocean_database_firewall.glpi&#45;fw (expand)&#45;&gt;[root] digitalocean_droplet.web&#45;1 (expand)</title>
<path fill="none" stroke="black" d="M1149.96,-288.28C1231.48,-278.61 1335.49,-265.89 1437.64,-252.1"/>
<polygon fill="black" stroke="black" points="1438.4,-255.53 1447.84,-250.72 1437.46,-248.59 1438.4,-255.53"/>
</g>
<!-- [root] digitalocean_database_user.glpi&#45;user (expand) -->
<g id="node4" class="node">
<title>[root] digitalocean_database_user.glpi&#45;user (expand)</title>
<polygon fill="none" stroke="black" points="279,-324 0,-324 0,-288 279,-288 279,-324"/>
<text text-anchor="middle" x="139.5" y="-302.3" font-family="Times,serif" font-size="14.00">digitalocean_database_user.glpi&#45;user</text>
</g>
<!-- [root] digitalocean_database_user.glpi&#45;user (expand)&#45;&gt;[root] digitalocean_database_cluster.mysql&#45;glpi (expand) -->
<g id="edge5" class="edge">
<title>[root] digitalocean_database_user.glpi&#45;user (expand)&#45;&gt;[root] digitalocean_database_cluster.mysql&#45;glpi (expand)</title>
<path fill="none" stroke="black" d="M260.69,-287.97C334.95,-277.53 430.01,-264.17 506.07,-253.47"/>
<polygon fill="black" stroke="black" points="506.79,-256.91 516.2,-252.05 505.81,-249.98 506.79,-256.91"/>
</g>
<!-- [root] var.glpi_db_user -->
<g id="node17" class="node">
<title>[root] var.glpi_db_user</title>
<polygon fill="none" stroke="black" points="200,-252 73,-252 73,-216 206,-216 206,-246 200,-252"/>
<polyline fill="none" stroke="black" points="200,-252 200,-246 "/>
<polyline fill="none" stroke="black" points="206,-246 200,-246 "/>
<text text-anchor="middle" x="139.5" y="-230.3" font-family="Times,serif" font-size="14.00">var.glpi_db_user</text>
</g>
<!-- [root] digitalocean_database_user.glpi&#45;user (expand)&#45;&gt;[root] var.glpi_db_user -->
<g id="edge6" class="edge">
<title>[root] digitalocean_database_user.glpi&#45;user (expand)&#45;&gt;[root] var.glpi_db_user</title>
<path fill="none" stroke="black" d="M139.5,-287.7C139.5,-279.98 139.5,-270.71 139.5,-262.11"/>
<polygon fill="black" stroke="black" points="143,-262.1 139.5,-252.1 136,-262.1 143,-262.1"/>
</g>
<!-- [root] digitalocean_domain.boontouick (expand) -->
<g id="node5" class="node">
<title>[root] digitalocean_domain.boontouick (expand)</title>
<polygon fill="none" stroke="black" points="1430,-252 1185,-252 1185,-216 1430,-216 1430,-252"/>
<text text-anchor="middle" x="1307.5" y="-230.3" font-family="Times,serif" font-size="14.00">digitalocean_domain.boontouick</text>
</g>
<!-- [root] digitalocean_domain.boontouick (expand)&#45;&gt;[root] provider[&quot;registry.terraform.io/digitalocean/digitalocean&quot;] -->
<g id="edge7" class="edge">
<title>[root] digitalocean_domain.boontouick (expand)&#45;&gt;[root] provider[&quot;registry.terraform.io/digitalocean/digitalocean&quot;]</title>
<path fill="none" stroke="black" d="M1322.56,-215.75C1340.56,-196.04 1372.44,-163.94 1405.5,-144 1430.38,-128.99 1460.17,-117.23 1486.34,-108.64"/>
<polygon fill="black" stroke="black" points="1487.71,-111.88 1496.18,-105.5 1485.59,-105.21 1487.71,-111.88"/>
</g>
<!-- [root] digitalocean_droplet.web&#45;1 (expand)&#45;&gt;[root] data.digitalocean_ssh_key.terraform (expand) -->
<g id="edge8" class="edge">
<title>[root] digitalocean_droplet.web&#45;1 (expand)&#45;&gt;[root] data.digitalocean_ssh_key.terraform (expand)</title>
<path fill="none" stroke="black" d="M1552.25,-215.7C1552.14,-207.98 1552.01,-198.71 1551.89,-190.11"/>
<polygon fill="black" stroke="black" points="1555.39,-190.05 1551.74,-180.1 1548.39,-190.15 1555.39,-190.05"/>
</g>
<!-- [root] digitalocean_project.boontouickGLPI (expand) -->
<g id="node7" class="node">
<title>[root] digitalocean_project.boontouickGLPI (expand)</title>
<polygon fill="none" stroke="black" points="2232.5,-180 1954.5,-180 1954.5,-144 2232.5,-144 2232.5,-180"/>
<text text-anchor="middle" x="2093.5" y="-158.3" font-family="Times,serif" font-size="14.00">digitalocean_project.boontouickGLPI</text>
</g>
<!-- [root] digitalocean_project.boontouickGLPI (expand)&#45;&gt;[root] provider[&quot;registry.terraform.io/digitalocean/digitalocean&quot;] -->
<g id="edge9" class="edge">
<title>[root] digitalocean_project.boontouickGLPI (expand)&#45;&gt;[root] provider[&quot;registry.terraform.io/digitalocean/digitalocean&quot;]</title>
<path fill="none" stroke="black" d="M1961.6,-143.97C1868.77,-131.98 1746.05,-116.13 1659.12,-104.9"/>
<polygon fill="black" stroke="black" points="1659.34,-101.4 1648.97,-103.59 1658.44,-108.34 1659.34,-101.4"/>
</g>
<!-- [root] digitalocean_project_resources.db (expand) -->
<g id="node8" class="node">
<title>[root] digitalocean_project_resources.db (expand)</title>
<polygon fill="none" stroke="black" points="557.5,-324 297.5,-324 297.5,-288 557.5,-288 557.5,-324"/>
<text text-anchor="middle" x="427.5" y="-302.3" font-family="Times,serif" font-size="14.00">digitalocean_project_resources.db</text>
</g>
<!-- [root] digitalocean_project_resources.db (expand)&#45;&gt;[root] digitalocean_database_cluster.mysql&#45;glpi (expand) -->
<g id="edge10" class="edge">
<title>[root] digitalocean_project_resources.db (expand)&#45;&gt;[root] digitalocean_database_cluster.mysql&#45;glpi (expand)</title>
<path fill="none" stroke="black" d="M478.6,-287.97C508.07,-278.14 545.31,-265.73 576.33,-255.39"/>
<polygon fill="black" stroke="black" points="577.79,-258.59 586.17,-252.11 575.57,-251.95 577.79,-258.59"/>
</g>
<!-- [root] digitalocean_project_resources.db (expand)&#45;&gt;[root] digitalocean_domain.boontouick (expand) -->
<g id="edge11" class="edge">
<title>[root] digitalocean_project_resources.db (expand)&#45;&gt;[root] digitalocean_domain.boontouick (expand)</title>
<path fill="none" stroke="black" d="M557.7,-288.88C560.66,-288.57 563.6,-288.28 566.5,-288 778.89,-267.43 1026.26,-251.31 1174.68,-242.48"/>
<polygon fill="black" stroke="black" points="1174.97,-245.97 1184.75,-241.88 1174.56,-238.98 1174.97,-245.97"/>
</g>
<!-- [root] digitalocean_project_resources.dns (expand) -->
<g id="node9" class="node">
<title>[root] digitalocean_project_resources.dns (expand)</title>
<polygon fill="none" stroke="black" points="843,-324 576,-324 576,-288 843,-288 843,-324"/>
<text text-anchor="middle" x="709.5" y="-302.3" font-family="Times,serif" font-size="14.00">digitalocean_project_resources.dns</text>
</g>
<!-- [root] digitalocean_project_resources.dns (expand)&#45;&gt;[root] digitalocean_domain.boontouick (expand) -->
<g id="edge12" class="edge">
<title>[root] digitalocean_project_resources.dns (expand)&#45;&gt;[root] digitalocean_domain.boontouick (expand)</title>
<path fill="none" stroke="black" d="M843.09,-289.11C846.25,-288.74 849.4,-288.37 852.5,-288 960.98,-275.23 1084.03,-260.91 1174.79,-250.37"/>
<polygon fill="black" stroke="black" points="1175.33,-253.84 1184.86,-249.21 1174.53,-246.88 1175.33,-253.84"/>
</g>
<!-- [root] digitalocean_project_resources.web&#45;1 (expand) -->
<g id="node10" class="node">
<title>[root] digitalocean_project_resources.web&#45;1 (expand)</title>
<polygon fill="none" stroke="black" points="1451.5,-324 1167.5,-324 1167.5,-288 1451.5,-288 1451.5,-324"/>
<text text-anchor="middle" x="1309.5" y="-302.3" font-family="Times,serif" font-size="14.00">digitalocean_project_resources.web&#45;1</text>
</g>
<!-- [root] digitalocean_project_resources.web&#45;1 (expand)&#45;&gt;[root] digitalocean_domain.boontouick (expand) -->
<g id="edge13" class="edge">
<title>[root] digitalocean_project_resources.web&#45;1 (expand)&#45;&gt;[root] digitalocean_domain.boontouick (expand)</title>
<path fill="none" stroke="black" d="M1309.01,-287.7C1308.79,-279.98 1308.52,-270.71 1308.27,-262.11"/>
<polygon fill="black" stroke="black" points="1311.77,-262 1307.99,-252.1 1304.78,-262.2 1311.77,-262"/>
</g>
<!-- [root] digitalocean_project_resources.web&#45;1 (expand)&#45;&gt;[root] digitalocean_droplet.web&#45;1 (expand) -->
<g id="edge14" class="edge">
<title>[root] digitalocean_project_resources.web&#45;1 (expand)&#45;&gt;[root] digitalocean_droplet.web&#45;1 (expand)</title>
<path fill="none" stroke="black" d="M1368.63,-287.97C1403.18,-278.01 1446.95,-265.41 1483.12,-254.99"/>
<polygon fill="black" stroke="black" points="1484.46,-258.24 1493.1,-252.11 1482.52,-251.52 1484.46,-258.24"/>
</g>
<!-- [root] digitalocean_record.CNAME&#45;www (expand) -->
<g id="node11" class="node">
<title>[root] digitalocean_record.CNAME&#45;www (expand)</title>
<polygon fill="none" stroke="black" points="1729,-324 1470,-324 1470,-288 1729,-288 1729,-324"/>
<text text-anchor="middle" x="1599.5" y="-302.3" font-family="Times,serif" font-size="14.00">digitalocean_record.CNAME&#45;www</text>
</g>
<!-- [root] digitalocean_record.CNAME&#45;www (expand)&#45;&gt;[root] digitalocean_domain.boontouick (expand) -->
<g id="edge15" class="edge">
<title>[root] digitalocean_record.CNAME&#45;www (expand)&#45;&gt;[root] digitalocean_domain.boontouick (expand)</title>
<path fill="none" stroke="black" d="M1528.44,-287.97C1486.15,-277.83 1432.34,-264.93 1388.41,-254.4"/>
<polygon fill="black" stroke="black" points="1389.16,-250.98 1378.62,-252.05 1387.53,-257.78 1389.16,-250.98"/>
</g>
<!-- [root] digitalocean_record.CNAME&#45;www (expand)&#45;&gt;[root] digitalocean_droplet.web&#45;1 (expand) -->
<g id="edge16" class="edge">
<title>[root] digitalocean_record.CNAME&#45;www (expand)&#45;&gt;[root] digitalocean_droplet.web&#45;1 (expand)</title>
<path fill="none" stroke="black" d="M1587.88,-287.7C1582.36,-279.47 1575.65,-269.48 1569.57,-260.42"/>
<polygon fill="black" stroke="black" points="1572.46,-258.46 1563.98,-252.1 1566.65,-262.36 1572.46,-258.46"/>
</g>
<!-- [root] digitalocean_volume.glpi&#45;data (expand) -->
<g id="node12" class="node">
<title>[root] digitalocean_volume.glpi&#45;data (expand)</title>
<polygon fill="none" stroke="black" points="1936.5,-180 1706.5,-180 1706.5,-144 1936.5,-144 1936.5,-180"/>
<text text-anchor="middle" x="1821.5" y="-158.3" font-family="Times,serif" font-size="14.00">digitalocean_volume.glpi&#45;data</text>
</g>
<!-- [root] digitalocean_volume.glpi&#45;data (expand)&#45;&gt;[root] provider[&quot;registry.terraform.io/digitalocean/digitalocean&quot;] -->
<g id="edge17" class="edge">
<title>[root] digitalocean_volume.glpi&#45;data (expand)&#45;&gt;[root] provider[&quot;registry.terraform.io/digitalocean/digitalocean&quot;]</title>
<path fill="none" stroke="black" d="M1755.8,-143.97C1713.74,-133.06 1659.38,-118.97 1617.31,-108.06"/>
<polygon fill="black" stroke="black" points="1618,-104.62 1607.44,-105.5 1616.24,-111.4 1618,-104.62"/>
</g>
<!-- [root] digitalocean_volume_attachment.glpi&#45;data (expand) -->
<g id="node13" class="node">
<title>[root] digitalocean_volume_attachment.glpi&#45;data (expand)</title>
<polygon fill="none" stroke="black" points="2065.5,-324 1747.5,-324 1747.5,-288 2065.5,-288 2065.5,-324"/>
<text text-anchor="middle" x="1906.5" y="-302.3" font-family="Times,serif" font-size="14.00">digitalocean_volume_attachment.glpi&#45;data</text>
</g>
<!-- [root] digitalocean_volume_attachment.glpi&#45;data (expand)&#45;&gt;[root] digitalocean_droplet.web&#45;1 (expand) -->
<g id="edge18" class="edge">
<title>[root] digitalocean_volume_attachment.glpi&#45;data (expand)&#45;&gt;[root] digitalocean_droplet.web&#45;1 (expand)</title>
<path fill="none" stroke="black" d="M1820.35,-287.97C1768.43,-277.7 1702.2,-264.6 1648.58,-254"/>
<polygon fill="black" stroke="black" points="1649.21,-250.56 1638.72,-252.05 1647.86,-257.42 1649.21,-250.56"/>
</g>
<!-- [root] digitalocean_volume_attachment.glpi&#45;data (expand)&#45;&gt;[root] digitalocean_volume.glpi&#45;data (expand) -->
<g id="edge19" class="edge">
<title>[root] digitalocean_volume_attachment.glpi&#45;data (expand)&#45;&gt;[root] digitalocean_volume.glpi&#45;data (expand)</title>
<path fill="none" stroke="black" d="M1896.25,-287.87C1881.51,-263.24 1854.21,-217.64 1836.99,-188.88"/>
<polygon fill="black" stroke="black" points="1839.93,-186.97 1831.79,-180.19 1833.92,-190.57 1839.93,-186.97"/>
</g>
<!-- [root] var.do_token -->
<g id="node15" class="node">
<title>[root] var.do_token</title>
<polygon fill="none" stroke="black" points="1599,-36 1498,-36 1498,0 1605,0 1605,-30 1599,-36"/>
<polyline fill="none" stroke="black" points="1599,-36 1599,-30 "/>
<polyline fill="none" stroke="black" points="1605,-30 1599,-30 "/>
<text text-anchor="middle" x="1551.5" y="-14.3" font-family="Times,serif" font-size="14.00">var.do_token</text>
</g>
<!-- [root] provider[&quot;registry.terraform.io/digitalocean/digitalocean&quot;]&#45;&gt;[root] var.do_token -->
<g id="edge29" class="edge">
<title>[root] provider[&quot;registry.terraform.io/digitalocean/digitalocean&quot;]&#45;&gt;[root] var.do_token</title>
<path fill="none" stroke="black" d="M1551.5,-71.7C1551.5,-63.98 1551.5,-54.71 1551.5,-46.11"/>
<polygon fill="black" stroke="black" points="1555,-46.1 1551.5,-36.1 1548,-46.1 1555,-46.1"/>
</g>
<!-- [root] var.glpi_db_pass -->
<g id="node16" class="node">
<title>[root] var.glpi_db_pass</title>
<polygon fill="none" stroke="black" points="139.5,-396 11.5,-396 11.5,-360 145.5,-360 145.5,-390 139.5,-396"/>
<polyline fill="none" stroke="black" points="139.5,-396 139.5,-390 "/>
<polyline fill="none" stroke="black" points="145.5,-390 139.5,-390 "/>
<text text-anchor="middle" x="78.5" y="-374.3" font-family="Times,serif" font-size="14.00">var.glpi_db_pass</text>
</g>
<!-- [root] output.db_pass (expand) -->
<g id="node18" class="node">
<title>[root] output.db_pass (expand)</title>
<ellipse fill="none" stroke="black" cx="316.5" cy="-378" rx="153.27" ry="18"/>
<text text-anchor="middle" x="316.5" y="-374.3" font-family="Times,serif" font-size="14.00">[root] output.db_pass (expand)</text>
</g>
<!-- [root] output.db_pass (expand)&#45;&gt;[root] digitalocean_database_user.glpi&#45;user (expand) -->
<g id="edge20" class="edge">
<title>[root] output.db_pass (expand)&#45;&gt;[root] digitalocean_database_user.glpi&#45;user (expand)</title>
<path fill="none" stroke="black" d="M275,-360.59C250.25,-350.8 218.58,-338.28 192.09,-327.8"/>
<polygon fill="black" stroke="black" points="193.17,-324.46 182.59,-324.04 190.6,-330.97 193.17,-324.46"/>
</g>
<!-- [root] provider[&quot;registry.terraform.io/digitalocean/digitalocean&quot;] (close) -->
<g id="node19" class="node">
<title>[root] provider[&quot;registry.terraform.io/digitalocean/digitalocean&quot;] (close)</title>
<ellipse fill="none" stroke="black" cx="1005.5" cy="-378" rx="341.74" ry="18"/>
<text text-anchor="middle" x="1005.5" y="-374.3" font-family="Times,serif" font-size="14.00">[root] provider[&quot;registry.terraform.io/digitalocean/digitalocean&quot;] (close)</text>
</g>
<!-- [root] provider[&quot;registry.terraform.io/digitalocean/digitalocean&quot;] (close)&#45;&gt;[root] digitalocean_database_firewall.glpi&#45;fw (expand) -->
<g id="edge21" class="edge">
<title>[root] provider[&quot;registry.terraform.io/digitalocean/digitalocean&quot;] (close)&#45;&gt;[root] digitalocean_database_firewall.glpi&#45;fw (expand)</title>
<path fill="none" stroke="black" d="M1005.5,-359.7C1005.5,-351.98 1005.5,-342.71 1005.5,-334.11"/>
<polygon fill="black" stroke="black" points="1009,-334.1 1005.5,-324.1 1002,-334.1 1009,-334.1"/>
</g>
<!-- [root] provider[&quot;registry.terraform.io/digitalocean/digitalocean&quot;] (close)&#45;&gt;[root] digitalocean_database_user.glpi&#45;user (expand) -->
<g id="edge22" class="edge">
<title>[root] provider[&quot;registry.terraform.io/digitalocean/digitalocean&quot;] (close)&#45;&gt;[root] digitalocean_database_user.glpi&#45;user (expand)</title>
<path fill="none" stroke="black" d="M796.29,-363.74C655.84,-354.31 466.4,-340.56 289.11,-324.04"/>
<polygon fill="black" stroke="black" points="289.35,-320.54 279.07,-323.09 288.7,-327.51 289.35,-320.54"/>
</g>
<!-- [root] provider[&quot;registry.terraform.io/digitalocean/digitalocean&quot;] (close)&#45;&gt;[root] digitalocean_project.boontouickGLPI (expand) -->
<g id="edge23" class="edge">
<title>[root] provider[&quot;registry.terraform.io/digitalocean/digitalocean&quot;] (close)&#45;&gt;[root] digitalocean_project.boontouickGLPI (expand)</title>
<path fill="none" stroke="black" d="M1321.98,-371.18C1627.2,-364.06 2047.04,-349.66 2074.5,-324 2110.81,-290.07 2106.07,-226.36 2099.64,-190.08"/>
<polygon fill="black" stroke="black" points="2103.06,-189.35 2097.72,-180.2 2096.19,-190.68 2103.06,-189.35"/>
</g>
<!-- [root] provider[&quot;registry.terraform.io/digitalocean/digitalocean&quot;] (close)&#45;&gt;[root] digitalocean_project_resources.db (expand) -->
<g id="edge24" class="edge">
<title>[root] provider[&quot;registry.terraform.io/digitalocean/digitalocean&quot;] (close)&#45;&gt;[root] digitalocean_project_resources.db (expand)</title>
<path fill="none" stroke="black" d="M875.35,-361.34C790.64,-351.14 677.43,-337.47 567.96,-324.18"/>
<polygon fill="black" stroke="black" points="568.07,-320.66 557.72,-322.93 567.22,-327.61 568.07,-320.66"/>
</g>
<!-- [root] provider[&quot;registry.terraform.io/digitalocean/digitalocean&quot;] (close)&#45;&gt;[root] digitalocean_project_resources.dns (expand) -->
<g id="edge25" class="edge">
<title>[root] provider[&quot;registry.terraform.io/digitalocean/digitalocean&quot;] (close)&#45;&gt;[root] digitalocean_project_resources.dns (expand)</title>
<path fill="none" stroke="black" d="M934.98,-360.32C891.8,-350.11 836.38,-337.01 791.29,-326.34"/>
<polygon fill="black" stroke="black" points="792.08,-322.93 781.54,-324.04 790.47,-329.74 792.08,-322.93"/>
</g>
<!-- [root] provider[&quot;registry.terraform.io/digitalocean/digitalocean&quot;] (close)&#45;&gt;[root] digitalocean_project_resources.web&#45;1 (expand) -->
<g id="edge26" class="edge">
<title>[root] provider[&quot;registry.terraform.io/digitalocean/digitalocean&quot;] (close)&#45;&gt;[root] digitalocean_project_resources.web&#45;1 (expand)</title>
<path fill="none" stroke="black" d="M1077.93,-360.32C1122.27,-350.11 1179.19,-337.01 1225.5,-326.34"/>
<polygon fill="black" stroke="black" points="1226.55,-329.69 1235.51,-324.04 1224.98,-322.87 1226.55,-329.69"/>
</g>
<!-- [root] provider[&quot;registry.terraform.io/digitalocean/digitalocean&quot;] (close)&#45;&gt;[root] digitalocean_record.CNAME&#45;www (expand) -->
<g id="edge27" class="edge">
<title>[root] provider[&quot;registry.terraform.io/digitalocean/digitalocean&quot;] (close)&#45;&gt;[root] digitalocean_record.CNAME&#45;www (expand)</title>
<path fill="none" stroke="black" d="M1140.91,-361.43C1228.75,-351.28 1346,-337.65 1459.4,-324.13"/>
<polygon fill="black" stroke="black" points="1460.14,-327.56 1469.65,-322.9 1459.31,-320.61 1460.14,-327.56"/>
</g>
<!-- [root] provider[&quot;registry.terraform.io/digitalocean/digitalocean&quot;] (close)&#45;&gt;[root] digitalocean_volume_attachment.glpi&#45;data (expand) -->
<g id="edge28" class="edge">
<title>[root] provider[&quot;registry.terraform.io/digitalocean/digitalocean&quot;] (close)&#45;&gt;[root] digitalocean_volume_attachment.glpi&#45;data (expand)</title>
<path fill="none" stroke="black" d="M1211.5,-363.63C1355.59,-353.91 1552.82,-339.86 1737.13,-324.02"/>
<polygon fill="black" stroke="black" points="1737.63,-327.49 1747.29,-323.14 1737.03,-320.51 1737.63,-327.49"/>
</g>
<!-- [root] root -->
<g id="node20" class="node">
<title>[root] root</title>
<ellipse fill="none" stroke="black" cx="316.5" cy="-450" rx="58.49" ry="18"/>
<text text-anchor="middle" x="316.5" y="-446.3" font-family="Times,serif" font-size="14.00">[root] root</text>
</g>
<!-- [root] root&#45;&gt;[root] var.glpi_db_pass -->
<g id="edge32" class="edge">
<title>[root] root&#45;&gt;[root] var.glpi_db_pass</title>
<path fill="none" stroke="black" d="M275.86,-437.05C240.34,-426.6 188.05,-411.22 146.21,-398.92"/>
<polygon fill="black" stroke="black" points="146.95,-395.48 136.37,-396.02 144.97,-402.2 146.95,-395.48"/>
</g>
<!-- [root] root&#45;&gt;[root] output.db_pass (expand) -->
<g id="edge30" class="edge">
<title>[root] root&#45;&gt;[root] output.db_pass (expand)</title>
<path fill="none" stroke="black" d="M316.5,-431.7C316.5,-423.98 316.5,-414.71 316.5,-406.11"/>
<polygon fill="black" stroke="black" points="320,-406.1 316.5,-396.1 313,-406.1 320,-406.1"/>
</g>
<!-- [root] root&#45;&gt;[root] provider[&quot;registry.terraform.io/digitalocean/digitalocean&quot;] (close) -->
<g id="edge31" class="edge">
<title>[root] root&#45;&gt;[root] provider[&quot;registry.terraform.io/digitalocean/digitalocean&quot;] (close)</title>
<path fill="none" stroke="black" d="M371.14,-443.45C472.49,-433.15 693.15,-410.73 845.51,-395.25"/>
<polygon fill="black" stroke="black" points="846.31,-398.69 855.9,-394.2 845.6,-391.73 846.31,-398.69"/>
</g>
</g>
</svg>
